<svg width="89" height="117" viewBox="0 0 89 117" fill="none" xmlns="http://www.w3.org/2000/svg">
    <path d="M54.4984 14.2782C47.4816 12.149 41.1649 12.0568 37.9492 15.6892C28.0235 26.9011 3.21042 73.9336 2.7115 88.3149C2.21257 102.696 39.9353 121.33 50.5146 111.509C61.0939 101.688 84.1584 49.0153 85.7523 38.8831C86.3563 35.0436 81.0635 29.1735 73.7162 23.9731M54.4984 14.2782C54.4984 14.2782 57.2959 4.91745 59.6812 3.59627C62.0666 2.27509 78.9654 9.73077 79.0446 12.9913C79.1238 16.2518 73.7162 23.9731 73.7162 23.9731M54.4984 14.2782C60.9329 16.2307 67.956 19.8961 73.7162 23.9731M57.7381 36.3615L25.5864 57.7744C25.5864 57.7744 38.7268 61.5063 38.0247 63.8094C37.3225 66.1125 24.0896 81.916 24.0896 81.916L61.0519 63.0852C61.0519 63.0852 44.2438 57.3258 44.7813 55.1907C45.3189 53.0556 57.7381 36.3615 57.7381 36.3615Z" stroke="#00C7FF" stroke-width="5"/>
</svg>
