<svg width="35" height="35" viewBox="0 0 35 35" fill="none" xmlns="http://www.w3.org/2000/svg">
    <path fill-rule="evenodd" clip-rule="evenodd" d="M16.7001 2.39604C17.1952 2.11823 17.8048 2.11823 18.2991 2.39604C20.7455 3.76906 28.1072 7.90198 30.5542 9.275C31.0494 9.55208 31.3541 10.0654 31.3541 10.621C31.3541 13.3671 31.3541 21.6322 31.3541 24.3782C31.3541 24.9339 31.0494 25.4472 30.5542 25.725C28.1079 27.098 20.7462 31.2309 18.2991 32.604C17.804 32.8818 17.1945 32.8818 16.7001 32.604C14.2537 31.2309 6.89206 27.098 4.44498 25.725C3.9506 25.4472 3.64581 24.9346 3.64581 24.379C3.64581 21.6329 3.64581 13.3678 3.64581 10.6218C3.64581 10.0661 3.9506 9.55281 4.44571 9.275C6.89133 7.90198 14.2545 3.76906 16.7001 2.39604Z" fill="#283593"/>
    <path fill-rule="evenodd" clip-rule="evenodd" d="M3.86748 25.0863C3.67352 24.8267 3.64581 24.5802 3.64581 24.2484C3.64581 21.5184 3.64581 13.3007 3.64581 10.57C3.64581 10.0173 3.94988 9.50688 4.44352 9.23126C6.88113 7.86626 14.218 3.7574 16.6556 2.39167C17.1493 2.11532 17.8179 2.12115 18.3115 2.39751C20.7491 3.76251 28.0612 7.83636 30.4988 9.20136C30.6957 9.31219 30.8459 9.44563 30.9801 9.62136L3.86748 25.0863Z" fill="#5C6BC0"/>
    <path fill-rule="evenodd" clip-rule="evenodd" d="M17.5 7.29167C23.1343 7.29167 27.7084 11.8657 27.7084 17.5C27.7084 23.1343 23.1343 27.7083 17.5 27.7083C11.8657 27.7083 7.29169 23.1343 7.29169 17.5C7.29169 11.8657 11.8657 7.29167 17.5 7.29167ZM17.5 12.3958C20.3168 12.3958 22.6042 14.6825 22.6042 17.5C22.6042 20.3168 20.3168 22.6042 17.5 22.6042C14.6832 22.6042 12.3959 20.3168 12.3959 17.5C12.3959 14.6825 14.6825 12.3958 17.5 12.3958Z" fill="white"/>
    <path fill-rule="evenodd" clip-rule="evenodd" d="M30.9787 9.62865C31.3549 9.98083 31.3476 10.5117 31.3476 10.9295C31.3476 13.6967 31.3243 21.5673 31.3542 24.3345C31.3571 24.6232 31.2616 24.9273 31.1187 25.1563L17.2032 17.5L30.9787 9.62865Z" fill="#3949AB"/>
</svg>
