<svg width="40" height="40" viewBox="0 0 40 40" fill="none" xmlns="http://www.w3.org/2000/svg">
    <path d="M29.6225 35.3592L26.9708 32.7075L25.2033 34.475L27.855 37.1267C28.3433 37.615 29.135 37.615 29.6225 37.1267C30.11 36.6383 30.1108 35.8475 29.6225 35.3592ZM32.1225 20.3592L29.4708 17.7075L27.7033 19.475L30.355 22.1267C30.8433 22.615 31.635 22.615 32.1225 22.1267C32.61 21.6383 32.6108 20.8475 32.1225 20.3592ZM10.5692 35.3592L13.2208 32.7075L14.9883 34.475L12.3367 37.1267C11.8483 37.615 11.0567 37.615 10.5692 37.1267C10.0817 36.6383 10.0808 35.8475 10.5692 35.3592ZM7.86084 20.3592L10.5125 17.7075L12.28 19.475L9.62834 22.1267C9.14001 22.615 8.34834 22.615 7.86084 22.1267C7.37334 21.6383 7.37251 20.8475 7.86084 20.3592Z" fill="#FFCC80"/>
    <path d="M31.6667 6.66667C31.6667 5.05584 30.7092 4.16667 28.9742 4.16667C27.2392 4.16667 25.8333 6.30584 25.8333 7.91667C25.8333 8.75 27.4358 9.16667 28.3333 9.16667C30.0683 9.16667 31.6667 8.2775 31.6667 6.66667ZM8.33334 6.66667C8.33334 5.05584 9.29084 4.16667 11.0258 4.16667C12.7608 4.16667 14.1667 6.30584 14.1667 7.91667C14.1667 8.75 12.5642 9.16667 11.6667 9.16667C9.93168 9.16667 8.33334 8.2775 8.33334 6.66667Z" fill="#4DD0E1"/>
    <path d="M29.1667 5.83333C28.9457 5.83333 28.7337 5.92113 28.5774 6.07741C28.4211 6.23369 28.3333 6.44565 28.3333 6.66666C28.3333 6.88768 28.4211 7.09964 28.5774 7.25592C28.7337 7.4122 28.9457 7.49999 29.1667 7.49999C29.3877 7.49999 29.5996 7.4122 29.7559 7.25592C29.9122 7.09964 30 6.88768 30 6.66666C30 6.44565 29.9122 6.23369 29.7559 6.07741C29.5996 5.92113 29.3877 5.83333 29.1667 5.83333ZM10.8333 5.83333C10.6123 5.83333 10.4004 5.92113 10.2441 6.07741C10.0878 6.23369 10 6.44565 10 6.66666C10 6.88768 10.0878 7.09964 10.2441 7.25592C10.4004 7.4122 10.6123 7.49999 10.8333 7.49999C11.0543 7.49999 11.2663 7.4122 11.4226 7.25592C11.5789 7.09964 11.6667 6.88768 11.6667 6.66666C11.6667 6.44565 11.5789 6.23369 11.4226 6.07741C11.2663 5.92113 11.0543 5.83333 10.8333 5.83333Z" fill="#424242"/>
    <path d="M30.8333 28.3333C30.8333 32.3117 28.1508 36.6667 19.7417 36.6667C12.9733 36.6667 9.16666 32.3117 9.16666 28.3333C9.16666 24.1667 9.99999 23.495 9.99999 20C9.99999 16.0933 9.99999 14.1667 9.99999 11.6667C9.99999 7.68833 12.5633 2.5 19.7417 2.5C26.92 2.5 30 5.82583 30 10.8333C30 13.3333 29.8025 15.3775 30 19.1667C30.155 22.135 30.8333 25.8333 30.8333 28.3333Z" fill="#4DD0E1"/>
    <path d="M24.1667 5C23.2826 5 22.4348 5.35119 21.8096 5.97631C21.1845 6.60143 20.8333 7.44928 20.8333 8.33333C20.8333 9.21739 21.1845 10.0652 21.8096 10.6904C22.4348 11.3155 23.2826 11.6667 24.1667 11.6667C25.0507 11.6667 25.8986 11.3155 26.5237 10.6904C27.1488 10.0652 27.5 9.21739 27.5 8.33333C27.5 7.44928 27.1488 6.60143 26.5237 5.97631C25.8986 5.35119 25.0507 5 24.1667 5ZM15.8333 5C14.9493 5 14.1014 5.35119 13.4763 5.97631C12.8512 6.60143 12.5 7.44928 12.5 8.33333C12.5 9.21739 12.8512 10.0652 13.4763 10.6904C14.1014 11.3155 14.9493 11.6667 15.8333 11.6667C16.7174 11.6667 17.5652 11.3155 18.1904 10.6904C18.8155 10.0652 19.1667 9.21739 19.1667 8.33333C19.1667 7.44928 18.8155 6.60143 18.1904 5.97631C17.5652 5.35119 16.7174 5 15.8333 5Z" fill="#F5F5F5"/>
    <path d="M20 16.6667C20 17.1267 20.3733 17.5 20.8333 17.5C21.2933 17.5 21.6667 17.1267 21.6667 16.6667V14.1667H20V16.6667ZM18.3333 16.6667C18.3333 17.1267 18.7067 17.5 19.1667 17.5C19.6267 17.5 20 17.1267 20 16.6667V14.1667H18.3333V16.6667Z" fill="#EEEEEE"/>
    <path d="M22.0833 15C21.74 15 21.5392 14.9292 21.2408 14.8292C20.4283 14.5558 19.5567 14.5575 18.7442 14.8308C18.4483 14.93 18.2583 15 17.9167 15C16.805 15 16.6667 14.1667 16.6667 13.75C16.6667 12.5 17.9167 11.6667 19.1667 11.6667C19.8625 11.6667 20.1375 11.6667 20.8333 11.6667C22.0833 11.6667 23.3333 12.5 23.3333 13.75C23.3333 14.1667 23.195 15 22.0833 15Z" fill="#FFCC80"/>
    <path d="M22.5 7.5C22.279 7.5 22.067 7.5878 21.9108 7.74408C21.7545 7.90036 21.6667 8.11232 21.6667 8.33333C21.6667 8.55435 21.7545 8.76631 21.9108 8.92259C22.067 9.07887 22.279 9.16667 22.5 9.16667C22.721 9.16667 22.933 9.07887 23.0893 8.92259C23.2455 8.76631 23.3333 8.55435 23.3333 8.33333C23.3333 8.11232 23.2455 7.90036 23.0893 7.74408C22.933 7.5878 22.721 7.5 22.5 7.5ZM14.1667 7.5C13.9457 7.5 13.7337 7.5878 13.5774 7.74408C13.4211 7.90036 13.3333 8.11232 13.3333 8.33333C13.3333 8.55435 13.4211 8.76631 13.5774 8.92259C13.7337 9.07887 13.9457 9.16667 14.1667 9.16667C14.3877 9.16667 14.5997 9.07887 14.7559 8.92259C14.9122 8.76631 15 8.55435 15 8.33333C15 8.11232 14.9122 7.90036 14.7559 7.74408C14.5997 7.5878 14.3877 7.5 14.1667 7.5ZM20 10.8333C19.558 10.8333 19.1341 10.9211 18.8215 11.0774C18.5089 11.2337 18.3333 11.4457 18.3333 11.6667C18.3333 11.8877 18.5089 12.0996 18.8215 12.2559C19.1341 12.4122 19.558 12.5 20 12.5C20.442 12.5 20.866 12.4122 21.1785 12.2559C21.4911 12.0996 21.6667 11.8877 21.6667 11.6667C21.6667 11.4457 21.4911 11.2337 21.1785 11.0774C20.866 10.9211 20.442 10.8333 20 10.8333Z" fill="#424242"/>
</svg>
