<svg width="45" height="45" viewBox="0 0 45 45" fill="none" xmlns="http://www.w3.org/2000/svg">
    <path fill-rule="evenodd" clip-rule="evenodd" d="M45 10.5019V2.985C44.9997 2.87232 44.9698 2.76169 44.9134 2.66413C44.857 2.56658 44.776 2.4855 44.6785 2.42898C44.581 2.37246 44.4704 2.34247 44.3577 2.34199C44.2451 2.34151 44.1342 2.37056 44.0363 2.42625L39.0863 5.25375C38.8891 5.36668 38.7253 5.52967 38.6114 5.72623C38.4975 5.92279 38.4375 6.14594 38.4375 6.37313V13.89C38.4375 14.385 38.9719 14.6963 39.4012 14.4488L44.3512 11.6213C44.5487 11.5082 44.7126 11.3449 44.8266 11.148C44.9405 10.951 45.0003 10.7294 45 10.5019ZM0.965625 2.42813L15.2963 10.6463C15.4915 10.7581 15.7125 10.8169 15.9375 10.8169C16.1625 10.8169 16.3835 10.7581 16.5788 10.6463L30.9094 2.42813C31.0074 2.37197 31.1184 2.34255 31.2314 2.34279C31.3444 2.34304 31.4553 2.37294 31.553 2.42952C31.6508 2.48609 31.732 2.56735 31.7885 2.66517C31.845 2.76298 31.8748 2.87392 31.875 2.98688V25.5431C31.875 25.9838 31.65 26.3925 31.2769 26.6306L22.5581 32.1675L28.3894 35.6025C28.8019 35.8463 29.3175 35.8406 29.7262 35.5856L38.37 30.1894C38.4626 30.1312 38.5389 30.0504 38.5917 29.9546C38.6445 29.8589 38.6721 29.7512 38.6719 29.6419V21.9825C38.6719 21.5063 38.9344 21.0713 39.3506 20.8463L44.0513 18.3225C44.1495 18.2701 44.2596 18.244 44.3709 18.2467C44.4822 18.2494 44.5909 18.2809 44.6864 18.3381C44.7819 18.3953 44.861 18.4763 44.9159 18.5731C44.9709 18.6699 44.9998 18.7793 45 18.8906V33.0113C45 33.4688 44.7562 33.8925 44.3625 34.1231L29.6737 42.7331C29.4713 42.8516 29.2404 42.9127 29.0058 42.9097C28.7712 42.9067 28.5419 42.8398 28.3425 42.7162L17.1806 35.8144C17.0871 35.7565 17.0098 35.6756 16.9564 35.5794C16.9029 35.4833 16.8749 35.375 16.875 35.265V28.47C16.875 28.2544 16.9819 28.0538 17.1619 27.9338L24.7369 22.8825C24.9137 22.7649 25.0587 22.6055 25.1591 22.4184C25.2596 22.2313 25.3122 22.0223 25.3125 21.81V13.5788C25.3124 13.5332 25.3003 13.4885 25.2773 13.4492C25.2543 13.41 25.2212 13.3775 25.1816 13.3552C25.1419 13.3329 25.097 13.3215 25.0515 13.3222C25.0059 13.323 24.9614 13.3358 24.9225 13.3594L16.5975 18.3544C16.398 18.4742 16.1698 18.5378 15.9371 18.5384C15.7044 18.5391 15.4758 18.4768 15.2756 18.3581L6.83437 13.3556C6.7952 13.3326 6.75064 13.3202 6.70519 13.3199C6.65973 13.3195 6.61498 13.3311 6.57544 13.3536C6.5359 13.376 6.50297 13.4084 6.47996 13.4476C6.45696 13.4868 6.44468 13.5314 6.44438 13.5769V28.4513C6.44419 28.5651 6.41386 28.6769 6.35647 28.7753C6.29908 28.8736 6.21668 28.955 6.11764 29.0112C6.0186 29.0674 5.90645 29.0964 5.79259 29.0952C5.67873 29.094 5.56721 29.0626 5.46938 29.0044L0.9375 26.2856C0.35625 25.9369 0 25.3069 0 24.6281V2.98688C0 2.49188 0.53625 2.18063 0.965625 2.42813Z" fill="#0073E6"/>
</svg>
