<svg width="489" height="346" viewBox="0 0 489 346" fill="none" xmlns="http://www.w3.org/2000/svg">
<path d="M454.5 326L453.812 325.357C453.731 325.276 445.298 317.452 436.973 307.47C425.721 293.951 420 283.125 420 275.26C420 266.109 423.589 257.507 430.106 251.035C436.623 244.564 445.285 241 454.5 241C463.715 241 472.377 244.564 478.894 251.035C485.411 257.507 489 266.109 489 275.26C489 283.111 483.293 293.951 472.027 307.47C463.715 317.452 455.283 325.276 455.188 325.357L454.5 326ZM454.5 243.01C445.824 243.01 437.675 246.359 431.536 252.456C425.397 258.552 422.024 266.645 422.024 275.26C422.024 284.438 430.996 297.14 438.525 306.17C445.393 314.41 452.328 321.177 454.5 323.24C456.672 321.177 463.621 314.41 470.488 306.17C478.017 297.14 486.99 284.438 486.99 275.26C486.99 266.645 483.617 258.552 477.478 252.456C471.338 246.359 463.176 243.01 454.5 243.01Z" fill="#00C7FF"/>
<circle cx="455.411" cy="280.41" r="6.62094" transform="rotate(-120 455.411 280.41)" stroke="#00C7FF" stroke-width="2"/>
<path d="M78.0986 194.954C78.3662 196.313 78.6338 197.672 78.9014 199.032C94.4251 195.998 110.589 193.136 126.239 190.523C166.345 183.887 206.591 178.193 247.058 174.985C267.181 173.455 287.74 172.457 307.763 173.47C317.948 174.047 328.024 175.038 337.601 177.799C346.84 180.288 357.304 186.613 354.098 196.627C291.688 269.827 153.787 230.856 100.684 318.394C100.23 334.451 117.755 340.941 130.48 342.987C144.187 345.332 158.077 345.329 171.864 344.879C199.564 343.801 226.922 340.423 254.217 336.936C308.903 330.003 363.418 320.782 418.572 319.265C434.627 319.003 450.866 319.415 466.5 322.684C450.88 319.346 434.632 318.864 418.569 319.057C363.38 320.338 308.801 329.328 254.101 336.023C226.802 339.391 199.441 342.648 171.821 343.604C158.081 343.994 144.241 343.928 130.736 341.555C118.034 339.444 101.743 333.103 102.316 318.394C153.968 233.804 290.596 273.95 356.902 197.358C358.552 191.888 356.786 185.67 352.502 182.033C348.368 178.33 343.296 176.382 338.465 174.897C328.47 171.973 318.258 170.948 307.938 170.315C287.675 169.203 267.018 170.124 246.801 171.572C206.158 174.618 165.813 180.151 125.599 186.626C109.9 189.178 93.7213 191.971 78.0986 194.954Z" fill="#58C4DC"/>
<path d="M79 196L77.4243 194.517C77.2389 194.332 57.9292 176.289 38.8666 153.272C13.0997 122.098 0 97.1349 0 78.9994C0 57.8978 8.21822 38.063 23.1408 23.1406C38.0634 8.21816 57.8983 0 79 0C100.102 0 119.937 8.21816 134.859 23.1406C149.782 38.063 158 57.8978 158 78.9994C158 97.104 144.931 122.098 119.133 153.272C100.102 176.289 80.7919 194.332 80.5757 194.517L79 196ZM79 4.6343C59.1341 4.6343 40.4732 12.3581 26.4157 26.4155C12.3582 40.4729 4.63434 59.1337 4.63434 78.9994C4.63434 100.163 25.1799 129.451 42.4196 150.275C58.1455 169.276 74.0258 184.878 79 189.636C83.9742 184.878 99.8854 169.276 115.611 150.275C132.851 129.451 153.397 100.163 153.397 78.9994C153.397 59.1337 145.673 40.4729 131.615 26.4155C117.558 12.3581 98.8659 4.6343 79 4.6343Z" fill="#00C7FF"/>
<circle cx="79" cy="98" r="22.5" stroke="#00C7FF" stroke-width="3"/>
</svg>
