<svg width="82" height="110" viewBox="0 0 82 110" fill="none" xmlns="http://www.w3.org/2000/svg">
    <path d="M7.135 15.3602C1.79641 17.7362 2.8087 18.1532 2.66275 20.2919C2.13322 28.0512 22.283 91.4879 26.7529 102.489C31.2227 113.49 78.8868 99.7022 79.358 90.1496C79.8292 80.597 60.6873 9.44192 56.4447 4.52965C55.3678 3.28278 55.7218 2.54854 50.5943 3.16643M7.135 15.3602C13.2459 14.8755 13.6682 27.0242 17.9473 29.9342C22.2264 32.8443 47.4778 27.0731 48.8219 19.4372C50.166 11.8013 44.9759 4.48861 50.5943 3.16643M7.135 15.3602C16.2489 11.3038 41.089 4.31188 50.5943 3.16643M19.709 20.0033C20.1424 20.4195 31.6648 17.2235 32.4733 16.2624C33.2818 15.3013 32.6104 15.1359 32.1801 15.262C31.7499 15.3881 19.9863 18.2926 19.4158 19.003C18.8453 19.7133 19.2755 19.5872 19.709 20.0033ZM40.2116 12.9082C40.5442 12.4486 40.9744 12.3225 41.359 12.5719C41.7436 12.8213 42.2027 13.0131 41.701 13.739C41.2806 14.3474 41.0817 14.2826 40.6971 14.0333C40.3125 13.7839 39.8791 13.3677 40.2116 12.9082Z" stroke="#00C7FF" stroke-width="5"/>
</svg>
