<svg width="67" height="67" viewBox="0 0 67 67" fill="none" xmlns="http://www.w3.org/2000/svg">
    <rect width="67" height="67" rx="8" fill="#2274A1"/>
    <path d="M43.9469 19.0936C42.4926 17.7436 40.558 17 38.5003 17C36.4425 17 34.5085 17.7436 33.0536 19.0936L26.155 25.4939L19.2562 31.8949C17.8014 33.245 17 35.0399 17 36.9486C17 38.8572 17.8014 40.6521 19.2562 42.0014C20.7104 43.3515 22.6451 44.095 24.7027 44.095C26.7603 44.095 28.6945 43.3515 30.1493 42.0014L37.0481 35.6012L43.9469 29.2001C45.4016 27.85 46.2028 26.0551 46.2028 24.1465C46.2028 22.2378 45.4016 20.4429 43.9469 19.0936ZM28.697 40.654C27.6297 41.644 26.2111 42.1895 24.7027 42.1895C23.1936 42.1895 21.7755 41.6442 20.7084 40.654C19.6414 39.6638 19.0541 38.3483 19.0541 36.9488C19.0541 35.5493 19.6418 34.2325 20.7084 33.2425L26.8811 27.5152L34.8697 34.9277L28.697 40.654ZM42.4946 27.8527L36.3219 33.5801L28.3334 26.1676L34.5061 20.441C35.5731 19.4511 36.9917 18.9055 38.5003 18.9055C40.0092 18.9055 41.4274 19.4509 42.4944 20.441C43.5614 21.4312 44.1488 22.7468 44.1488 24.1463C44.1488 25.5458 43.5612 26.8626 42.4946 27.8527Z" fill="white"/>
    <path d="M41.2639 23.4195C40.9352 23.4195 40.612 23.2754 40.4123 23.0084C39.93 22.3618 39.1343 21.9766 38.2832 21.9766C37.5947 21.9766 36.9479 22.2223 36.4607 22.6694C36.0579 23.0388 35.4056 23.0388 35.0031 22.6694C34.6005 22.2998 34.6005 21.7012 35.0031 21.3318C35.8795 20.5272 37.0441 20.0847 38.2832 20.0847C39.8148 20.0847 41.2467 20.7775 42.1135 21.9389C42.435 22.37 42.3154 22.9586 41.8453 23.2543C41.6676 23.3659 41.4647 23.4195 41.2639 23.4195Z" fill="white"/>
    <path d="M46.4122 37.0181L46.8859 36.1797L45.9405 35.7198L45.4676 36.5568C44.6943 36.2419 43.8539 36.0436 42.9722 35.9863V34.9781H44.6898V33.9877H40.1871V34.9781H41.9047V35.9863C41.0229 36.0436 40.1826 36.2419 39.4093 36.5568L38.9364 35.7198L37.9909 36.1797L38.4646 37.0181C36.3131 38.2562 34.877 40.4674 34.877 42.9843C34.877 46.8527 38.269 49.9999 42.4384 49.9999C46.6078 49.9999 49.9999 46.8527 49.9999 42.9843C49.9999 40.4674 48.5638 38.2562 46.4122 37.0181ZM42.4384 49.0095C38.8576 49.0095 35.9445 46.3066 35.9445 42.9843C35.9445 39.6619 38.8576 36.959 42.4384 36.959C46.0192 36.959 48.9324 39.6619 48.9324 42.9843C48.9324 46.3066 46.0192 49.0095 42.4384 49.0095Z" fill="white"/>
    <path d="M42.9723 38.7749H41.9048V43.4795H46.9754V42.4891H42.9723V38.7749Z" fill="white"/>
</svg>
