<svg width="430" height="260" viewBox="0 0 430 260" fill="none" xmlns="http://www.w3.org/2000/svg">
    <rect width="430" height="260" fill="#000C16"/>
    <path d="M180.202 145.624C179.341 143.017 177.087 141.202 174.172 140.767C172.797 140.561 171.223 140.649 169.36 141.033C166.113 141.703 163.704 141.958 161.946 142.007C168.582 130.804 173.978 118.027 177.084 106.001C182.107 86.5538 179.423 77.6946 176.286 73.6873C167.985 63.0807 155.875 57.3827 141.264 57.2083C133.47 57.113 126.628 58.6519 123.058 59.7585C119.735 59.1721 116.162 58.8447 112.413 58.7842C105.384 58.6721 99.1744 60.2042 93.8682 63.3531C90.9307 62.3597 86.216 60.9593 80.7714 60.0657C67.966 57.9635 57.6452 59.6016 50.0961 64.9346C40.9549 71.3917 36.7173 82.6105 37.501 98.2794C37.7499 103.254 40.5327 118.391 44.9144 132.746C47.4327 140.997 50.118 147.848 52.8958 153.112C56.8352 160.577 61.0504 164.973 65.7824 166.551C68.4347 167.435 73.2536 168.054 78.3221 163.832C78.9645 164.61 79.8217 165.383 80.9592 166.102C82.4038 167.013 84.1703 167.757 85.9345 168.198C92.2924 169.788 98.2477 169.39 103.328 167.162C103.36 168.066 103.384 168.929 103.404 169.675C103.438 170.884 103.471 172.07 103.516 173.179C103.817 180.676 104.327 186.506 105.838 190.585C105.921 190.809 106.033 191.151 106.151 191.514C106.905 193.822 108.165 197.687 111.373 200.714C114.695 203.849 118.713 204.811 122.392 204.811C124.238 204.811 125.999 204.569 127.543 204.238C133.048 203.058 139.301 201.261 143.824 194.82C148.1 188.732 150.179 179.562 150.555 165.114C150.604 164.705 150.649 164.315 150.692 163.943L150.782 163.18L151.789 163.268L152.048 163.286C157.656 163.541 164.512 162.352 168.723 160.396C172.05 158.852 182.712 153.223 180.202 145.624Z" fill="black"/>
    <path d="M170.614 147.102C153.941 150.541 152.795 144.896 152.795 144.896C170.398 118.776 177.757 85.6201 171.407 77.5053C154.082 55.3698 124.093 65.8385 123.592 66.1099L123.431 66.139C120.137 65.4551 116.451 65.0481 112.307 64.9802C104.764 64.8569 99.0413 66.9581 94.6988 70.2511C94.6988 70.2511 41.2002 48.2114 43.6887 97.9697C44.2179 108.555 58.8609 178.065 76.3261 157.07C82.7097 149.392 88.878 142.901 88.878 142.901C91.9412 144.936 95.6087 145.974 99.4533 145.602L99.7521 145.348C99.659 146.301 99.7017 147.233 99.8715 148.337C95.3721 153.364 96.6946 154.247 87.7002 156.098C78.5988 157.974 83.9453 161.313 87.4362 162.187C91.6682 163.244 101.459 164.743 108.074 155.483L107.81 156.54C109.573 157.952 110.811 165.724 110.603 172.77C110.396 179.816 110.257 184.653 111.646 188.432C113.036 192.21 114.42 200.712 126.244 198.179C136.124 196.061 141.244 190.575 141.956 181.422C142.461 174.916 143.606 175.878 143.677 170.06L144.595 167.307C145.653 158.487 144.763 155.641 150.85 156.964L152.33 157.095C156.809 157.298 162.673 156.374 166.114 154.774C173.525 151.335 177.92 145.593 170.613 147.102H170.614Z" fill="#336791"/>
    <path d="M97.8304 102.703C96.328 102.494 94.9674 102.688 94.279 103.209C93.8922 103.502 93.7722 103.842 93.7397 104.076C93.6534 104.695 94.0873 105.38 94.3541 105.734C95.1087 106.734 96.2108 107.421 97.3018 107.572C97.4599 107.595 97.6174 107.605 97.7738 107.605C99.593 107.605 101.247 106.188 101.393 105.143C101.575 103.833 99.6743 102.96 97.8304 102.703ZM147.603 102.745C147.46 101.718 145.633 101.426 143.9 101.667C142.169 101.908 140.49 102.689 140.63 103.718C140.743 104.518 142.187 105.884 143.897 105.884C144.042 105.884 144.188 105.874 144.334 105.853C145.476 105.695 146.313 104.971 146.711 104.553C147.317 103.916 147.668 103.206 147.603 102.745Z" fill="white"/>
    <path d="M176.162 146.711C175.526 144.788 173.48 144.17 170.08 144.872C159.987 146.955 156.372 145.512 155.185 144.638C163.031 132.686 169.485 118.238 172.967 104.758C174.616 98.3731 175.527 92.443 175.602 87.6095C175.684 82.3045 174.781 78.406 172.917 76.0246C165.404 66.4242 154.377 61.2745 141.029 61.1332C131.852 61.03 124.099 63.3784 122.596 64.0388C119.431 63.2517 115.98 62.7685 112.224 62.7068C105.335 62.5952 99.3802 64.2445 94.4502 67.6065C92.3087 66.8093 86.7744 64.9094 80.0062 63.819C68.3052 61.9354 59.007 63.3627 52.3717 68.0634C44.4542 73.6728 40.7991 83.6998 41.5071 97.8652C41.7454 102.631 44.461 117.292 48.7462 131.332C54.3871 149.812 60.519 160.274 66.9704 162.426C67.7256 162.677 68.5962 162.853 69.5565 162.853C71.9099 162.853 74.7954 161.793 77.7974 158.184C81.459 153.791 85.2468 149.505 89.1558 145.331C91.692 146.692 94.4782 147.452 97.3278 147.529C97.3334 147.603 97.3407 147.678 97.3474 147.752C96.8569 148.337 96.3766 148.93 95.9067 149.532C93.9322 152.038 93.5213 152.56 87.1657 153.869C85.3577 154.242 80.5561 155.231 80.4855 158.597C80.4093 162.275 86.1616 163.819 86.817 163.983C89.1009 164.555 91.3013 164.837 93.3996 164.837C98.5028 164.837 102.994 163.16 106.583 159.914C106.472 173.025 107.019 185.943 108.593 189.879C109.883 193.102 113.032 200.976 122.981 200.976C124.44 200.976 126.047 200.806 127.815 200.427C138.198 198.201 142.707 193.612 144.451 183.495C145.384 178.088 146.986 165.177 147.739 158.251C149.329 158.747 151.376 158.974 153.589 158.974C158.203 158.974 163.529 157.993 166.868 156.443C170.62 154.701 177.39 150.425 176.162 146.711ZM151.436 99.9114C151.402 101.956 151.12 103.812 150.822 105.75C150.501 107.833 150.169 109.988 150.085 112.603C150.003 115.148 150.321 117.794 150.628 120.353C151.249 125.522 151.887 130.843 149.419 136.094C149.009 135.368 148.644 134.617 148.326 133.847C148.019 133.103 147.353 131.909 146.431 130.256C142.844 123.823 134.443 108.757 138.744 102.61C140.025 100.78 143.276 98.8984 151.436 99.9114ZM141.544 65.2733C153.504 65.5373 162.965 70.0115 169.663 78.5708C174.801 85.1361 169.144 115.009 152.767 140.781C152.602 140.571 152.436 140.363 152.27 140.155L152.063 139.896C156.295 132.906 155.467 125.991 154.73 119.861C154.428 117.345 154.142 114.968 154.215 112.736C154.29 110.37 154.603 108.341 154.905 106.379C155.277 103.961 155.655 101.459 155.551 98.5093C155.629 98.1999 155.661 97.8344 155.62 97.4005C155.353 94.5722 152.124 86.1076 145.543 78.4464C141.943 74.2558 136.692 69.5664 129.524 66.4034C132.607 65.7643 136.824 65.1684 141.544 65.2733ZM74.6204 155.542C71.3129 159.519 69.029 158.757 68.2777 158.507C63.3837 156.874 57.7047 146.53 52.6979 130.126C48.3656 115.933 45.8339 101.661 45.6332 97.6583C45.0008 85.001 48.069 76.1798 54.7531 71.4394C65.6311 63.7254 83.5156 68.3426 90.702 70.6842C90.5988 70.7863 90.4912 70.8816 90.3892 70.9853C78.5963 82.8948 78.876 103.243 78.9052 104.487C78.904 104.966 78.9444 105.646 78.9993 106.58C79.2023 110.003 79.5801 116.372 78.571 123.586C77.6337 130.289 79.7001 136.85 84.2393 141.586C84.7052 142.071 85.1948 142.533 85.7064 142.97C83.686 145.134 79.2948 149.919 74.6204 155.542ZM87.2223 138.728C83.5638 134.91 81.9022 129.6 82.6629 124.158C83.728 116.538 83.3351 109.901 83.1237 106.336C83.094 105.837 83.0677 105.4 83.0525 105.055C84.7753 103.527 92.7589 99.2499 98.4524 100.554C101.05 101.149 102.633 102.919 103.292 105.961C106.698 121.716 103.742 128.283 101.368 133.56C100.878 134.647 100.416 135.674 100.021 136.737L99.7149 137.559C98.9401 139.637 98.2192 141.568 97.7724 143.403C93.8829 143.391 90.0993 141.73 87.2223 138.727V138.728ZM87.8194 159.975C86.6836 159.691 85.6621 159.198 85.0629 158.79C85.5635 158.554 86.4543 158.234 87.9993 157.915C95.4761 156.376 96.631 155.29 99.1526 152.088C99.7306 151.354 100.386 150.522 101.294 149.508L101.295 149.507C102.646 147.993 103.265 148.25 104.386 148.716C105.295 149.091 106.18 150.23 106.539 151.484C106.708 152.076 106.899 153.199 106.275 154.074C101.008 161.449 93.3318 161.354 87.8194 159.975ZM126.949 196.387C117.802 198.347 114.564 193.68 112.429 188.345C111.052 184.9 110.375 169.368 110.855 152.215C110.861 151.987 110.829 151.767 110.766 151.559C110.71 151.15 110.624 150.745 110.51 150.347C109.796 147.852 108.056 145.764 105.967 144.898C105.138 144.555 103.615 143.924 101.785 144.392C102.175 142.784 102.852 140.969 103.586 139.002L103.894 138.176C104.24 137.243 104.675 136.277 105.135 135.255C107.62 129.734 111.023 122.172 107.33 105.089C105.946 98.6899 101.325 95.565 94.3213 96.291C90.1223 96.7255 86.2805 98.4196 84.3643 99.3912C83.9523 99.5997 83.5756 99.8015 83.2235 99.9978C83.7583 93.5508 85.7787 81.5022 93.3368 73.8791C98.0958 69.0803 104.433 66.7101 112.155 66.8379C127.37 67.0868 137.127 74.8949 142.633 81.4019C147.378 87.0085 149.947 92.6566 150.973 95.703C143.262 94.9187 138.017 96.4407 135.359 100.242C129.575 108.509 138.523 124.556 142.823 132.268C143.612 133.682 144.293 134.903 144.507 135.422C145.907 138.816 147.72 141.082 149.044 142.736C149.45 143.243 149.843 143.735 150.142 144.164C147.807 144.837 143.612 146.393 143.994 154.169C143.686 158.071 141.493 176.339 140.38 182.793C138.909 191.32 135.771 194.496 126.949 196.388V196.387ZM165.129 152.696C162.74 153.804 158.744 154.636 154.947 154.814C150.754 155.011 148.619 154.345 148.117 153.935C147.882 149.089 149.685 148.583 151.594 148.047C151.894 147.963 152.186 147.88 152.469 147.782C152.644 147.925 152.837 148.066 153.048 148.205C156.418 150.43 162.429 150.67 170.916 148.918L171.009 148.899C169.865 149.97 167.906 151.406 165.129 152.696Z" fill="white"/>
    <path d="M307.679 57.5683C311.324 55.482 316.072 55.4725 319.714 57.5683C338.035 67.9209 356.362 78.2572 374.681 88.6161C378.126 90.5569 380.431 94.3913 380.396 98.3614V160.647C380.421 164.781 377.889 168.707 374.254 170.604C355.993 180.899 337.741 191.207 319.483 201.503C315.762 203.63 310.92 203.466 307.316 201.165C301.841 197.991 296.357 194.833 290.881 191.662C289.763 190.995 288.501 190.465 287.711 189.38C288.41 188.438 289.658 188.321 290.673 187.91C292.958 187.184 295.057 186.017 297.157 184.885C297.688 184.522 298.336 184.661 298.845 184.986C303.526 187.67 308.166 190.433 312.864 193.091C313.866 193.67 314.88 192.902 315.737 192.424C333.657 182.296 351.599 172.206 369.515 162.075C370.179 161.756 370.546 161.051 370.492 160.324C370.505 139.778 370.495 119.227 370.499 98.6808C370.575 97.8556 370.097 97.097 369.351 96.7593C351.153 86.5109 332.965 76.2468 314.77 65.9958C314.455 65.7791 314.081 65.6628 313.699 65.6622C313.316 65.6617 312.942 65.7769 312.626 65.9927C294.432 76.2468 276.246 86.5204 258.051 96.7682C257.308 97.1065 256.809 97.8525 256.898 98.6808C256.901 119.227 256.898 139.778 256.898 160.327C256.866 160.682 256.944 161.038 257.121 161.347C257.298 161.656 257.565 161.904 257.887 162.056C262.742 164.81 267.604 167.544 272.463 170.288C275.2 171.761 278.56 172.636 281.576 171.508C284.237 170.553 286.103 167.837 286.052 165.012C286.077 144.585 286.039 124.155 286.071 103.732C286.004 102.825 286.864 102.076 287.746 102.161C290.079 102.146 292.415 102.13 294.748 102.168C295.722 102.146 296.392 103.122 296.271 104.036C296.262 124.592 296.296 145.148 296.256 165.704C296.262 171.182 294.011 177.143 288.944 179.824C282.701 183.058 274.985 182.372 268.818 179.271C263.479 176.606 258.383 173.461 253.139 170.607C249.495 168.72 246.975 164.778 247 160.647V98.3614C246.962 94.3091 249.359 90.4051 252.911 88.4926C271.169 78.1887 289.424 67.8769 307.679 57.5683Z" fill="#8CC84B"/>
    <path d="M323.608 100.713C331.571 100.201 340.096 100.41 347.261 104.333C352.809 107.339 355.885 113.648 355.983 119.812C355.828 120.643 354.959 121.102 354.165 121.045C351.855 121.042 349.544 121.076 347.234 121.029C346.253 121.067 345.684 120.163 345.561 119.297C344.897 116.347 343.289 113.427 340.513 112.004C336.252 109.871 331.311 109.978 326.665 110.022C323.272 110.203 319.625 110.496 316.751 112.491C314.545 114.002 313.875 117.052 314.662 119.509C315.405 121.272 317.441 121.841 319.107 122.366C328.703 124.876 338.873 124.626 348.286 127.929C352.183 129.276 355.996 131.894 357.33 135.974C359.075 141.443 358.31 147.98 354.419 152.37C351.263 155.983 346.668 157.95 342.084 159.018C335.986 160.378 329.658 160.412 323.466 159.808C317.643 159.145 311.583 157.615 307.088 153.647C303.244 150.31 301.367 145.109 301.553 140.09C301.598 139.243 302.442 138.651 303.254 138.721C305.58 138.702 307.907 138.696 310.234 138.724C311.163 138.658 311.852 139.461 311.899 140.337C312.329 143.147 313.385 146.096 315.835 147.762C320.564 150.812 326.497 150.604 331.911 150.689C336.397 150.49 341.433 150.43 345.093 147.465C347.025 145.774 347.597 142.945 347.075 140.511C346.51 138.456 344.36 137.498 342.514 136.872C333.04 133.875 322.757 134.963 313.375 131.574C309.567 130.228 305.883 127.683 304.42 123.77C302.378 118.232 303.314 111.382 307.613 107.139C311.804 102.919 317.855 101.295 323.608 100.713Z" fill="#8CC84B"/>
</svg>
