<svg width="102" height="108" viewBox="0 0 102 108" fill="none" xmlns="http://www.w3.org/2000/svg">
    <path d="M99.6471 10.1429C102.639 -7.28075 103.167 3.63102 51.6001 14.5428C51.6001 14.5428 79.9355 15.7748 85.0394 21.0546C90.1433 26.3345 99.6471 74.3815 99.6471 63.2937C99.6471 52.206 97.2535 24.0818 99.6471 10.1429Z" fill="#00C7FF" stroke="black"/>
    <path d="M6.17901 87.3183C-6.00022 81 17.1381 39.2258 20.0691 41.1129C23 43 15.6275 69.1251 19.7839 75.1791C23.9403 81.2332 59 95 58.263 97.9142C57.5259 100.828 18.3582 93.6366 6.17901 87.3183Z" fill="#00C7FF" stroke="black"/>
    <path d="M34.0266 11.7968C34.326 16.2361 70.4658 95.9949 73.7123 100.23C76.9588 104.465 79.2953 103.21 78.9761 99.1663C78.657 95.1223 43.8207 13.9262 40.726 10.443C37.6314 6.95979 33.7272 7.35745 34.0266 11.7968Z" fill="#00C7FF" stroke="black"/>
</svg>
